<?xml version="1.0" encoding="utf-8"?>
<!-- Generator: Adobe Illustrator 27.2.0, SVG Export Plug-In . SVG Version: 6.00 Build 0)  -->
<svg version="1.1" id="Layer_1" xmlns="http://www.w3.org/2000/svg" xmlns:xlink="http://www.w3.org/1999/xlink" x="0px" y="0px"
	 viewBox="0 0 2250 500" style="enable-background:new 0 0 2250 500;" xml:space="preserve">
<style type="text/css">
	.st0{fill:#FFFFFF;}
</style>
<g>
	<g>
		<path class="st0" d="M1422.67,429.12c-26.1,0-51.51,0-77.45,0c0-119.37,0-238.72,0-358.66c10.2,0,20.18,0,30.16,0
			c12.43,0,24.87-0.23,37.29,0.18c2.69,0.09,6.21,1.75,7.82,3.86c52.81,69.13,105.43,138.4,158.09,207.64
			c1.77,2.33,3.6,4.6,6.69,6.58c0-72.59,0-145.17,0-218.01c26.32,0,51.74,0,77.74,0c0,119.38,0,238.7,0,358.76
			c-5.68,0-11.23,0-16.79,0c-14.04,0-28.09-0.35-42.11,0.16c-6.17,0.22-9.73-2.05-13.32-6.78
			c-54.5-71.87-109.17-143.61-163.81-215.38c-1.05-1.38-2.21-2.69-4.3-5.23C1422.67,278.71,1422.67,353.74,1422.67,429.12z"/>
		<path class="st0" d="M96.39,377.08c15.73-18.84,31.08-37.24,46.43-55.63c9.59,6.67,18.53,13.41,27.97,19.34
			c27.95,17.55,58.31,26.62,91.45,22.85c8.88-1.01,18.25-3.93,25.88-8.5c19.02-11.43,19.29-38.39-0.05-49.13
			c-13.99-7.77-29.7-12.71-45.02-17.77c-21.07-6.97-42.56-12.67-63.73-19.33c-6.25-1.96-12.17-5.11-18.07-8.06
			c-30.47-15.26-47.29-39.72-49.95-73.9c-3.01-38.56,7.99-71.29,39.34-95.55c18.2-14.09,39.24-21.9,61.88-24.41
			c57-6.32,108.99,6.76,154.82,42.02c0.63,0.48,1.2,1.04,2.44,2.12c-13.56,19.71-27.11,39.41-40.92,59.5
			c-6.21-3.89-12.03-7.72-18.02-11.26c-22.32-13.22-45.86-23.43-72.2-23.78c-10.17-0.13-20.77,1.94-30.46,5.16
			c-11.17,3.71-17.94,12.48-18.66,24.88c-0.73,12.67,4.07,23.1,15.68,28.02c15.78,6.69,32.06,12.46,48.54,17.18
			c25.02,7.17,50.36,13.25,73.63,25.41c24.01,12.55,43.22,29.74,49.46,57.18c8.51,37.47,3.85,72.69-22.73,102.46
			c-17.65,19.77-40.77,30.58-66.34,34.95c-70.5,12.04-133.37-5.46-188.41-51.13C98.56,379.08,97.84,378.39,96.39,377.08z"/>
		<path class="st0" d="M657.95,143.64c-36.77,0-72.62,0-108.88,0c0-24.29,0-48.26,0-72.7c98.61,0,197.32,0,296.53,0
			c0,23.89,0,47.84,0,72.47c-35.72,0-71.69,0-108.47,0c0,95.55,0,190.43,0,285.68c-26.77,0-52.71,0-79.18,0
			C657.95,333.97,657.95,239.2,657.95,143.64z"/>
		<path class="st0" d="M2045.23,429.11c-27.09,0-52.9,0-79.25,0c0-95.15,0-189.94,0-285.3c-36.53,0-72.53,0-108.89,0
			c0-24.53,0-48.5,0-72.91c98.73,0,197.46,0,296.52,0c0,24.14,0,48.1,0,72.6c-35.93,0-71.73,0-108.38,0
			C2045.23,238.93,2045.23,333.82,2045.23,429.11z"/>
	</g>
	<rect x="1056.26" y="70.46" class="st0" width="77.45" height="358.66"/>
</g>
</svg>
